<svg id="Layer_1" data-name="Layer 1" xmlns="http://www.w3.org/2000/svg" viewBox="0 0 300 300"><defs><style>.cls-1,.cls-3{fill:none;}.cls-1,.cls-3,.cls-4{stroke:#fff;stroke-miterlimit:10;stroke-width:7.82px;}.cls-2,.cls-4{fill:#fff;}.cls-3,.cls-4{stroke-linecap:round;}</style></defs><path class="cls-1" d="M34.32,106.28c4.23-.65,5,2.12,19.09,7.49,5.3,2,9.92,3.47,14.36,4.78,1.6.48,7.42,2.25,13.29,3.72,19.49,4.89,31,4.42,31.52,8,.41,2.75-6.07,4.75-5.58,9.13.21,1.91,1.65,3.19,3.19,4.6a17.09,17.09,0,0,0,10.39,4.24c4.3.07,7-1.95,13-5.85,12.5-8.14,18.88-12.19,25-12.14,4.58,0,8.41,1.75,12.25,3.47,4.73,2.11,8,4.59,12,7.61a122,122,0,0,1,9.9,8.48c7.71,7.11,17.45,15.62,27.17,27.21,1.53,1.83,3.8,4.59,3.43,8-.57,5.13-6.82,7.84-7.15,8a13.16,13.16,0,0,1-9.69,0c-3-1.32-4.78-3.8-5-3.6s1.76,1.83,2.86,4.66c.37.95,1.76,4.49.12,7.94a9.39,9.39,0,0,1-4.52,4.28c-4.74,2.38-9.67.5-10.22.28-2.55-1-4.08-2.65-4.51-2.24s1.05,1.85,1.59,4.37a9.43,9.43,0,0,1-.95,6.6c-2,3.34-6.12,4-8.06,4.25a10.38,10.38,0,0,1-4.74-.12c-3.56-1-5.73-4.11-5.85-4s2.73,2.11,2.58,4.43c-.17,2.74-4.37,4.37-4.66,4.48a9.15,9.15,0,0,1-6.39,0,15.43,15.43,0,0,1-5.79-4.74c-1-1.2-1.52-2.58-2.57-2.57-.51,0-.82.33-1.76,1.07s-2,1.38-2.95,2.08a11,11,0,0,1-5.65,1.72c-.75.06-6.61.52-9.08-2.72-2.82-3.69.74-9.84-.8-10.63s-4.55,6.09-10.35,6.77a9.38,9.38,0,0,1-8.61-3.85c-2.94-4.68,1.16-11.57-.18-12.23s-4.19,6.83-9.33,7.29c-4,.36-8.78-3.72-9.59-8-.9-4.88,3.37-9.31,2.47-10s-4.2,4.81-8.57,4.39-7.38-6.4-7.68-7.6c0-.16-.06-.28-.08-.39-.84-3.94.76-5.47.45-7.76-1-7-18.79-13.33-35.84-13.93-9.79-.35-19.06.49-26.57-5.63a7.53,7.53,0,0,1-1.61-1.82c-5.89-8.91,1.19-23.85,5.13-32.17C23.53,115.6,27.45,107.33,34.32,106.28Z"/><path class="cls-1" d="M276.91,120.37c-2.34-4.56-4.52-7.76-8.1-8.81s-8.33.66-17.75,4.13c-1.93.72-3.5,1.34-4.54,1.76a128,128,0,0,1-20.74,5.32c-11.16,1.65-15.87-2.85-36.69-9-18.19-5.42-27.29-8.12-35.62-6.92-6.19.9-16.16,8-36.16,21.81-8.9,6.15-12.32,8.89-11.88,12,.7,4.93,11.13,9.17,19.33,7.18,2.2-.54,6.1-3.38,13.82-9,7.5-5.51,9.55-7.4,13.75-8.27s7.35-.14,10.53.56c7.81,1.71,13.19,5.5,19.91,10.34,6.53,4.69,37.07,34.46,44.08,35.12a7.46,7.46,0,0,0,.81,0,31.62,31.62,0,0,0,11.21-1.81c6.1-2,7.4-2.81,13-4.79a98,98,0,0,1,11.17-3.46c1.94-.44,3.22-.66,14.09-2.38,7.15-1.13,7.28-1.15,7.65-1.41C292.56,157.19,283.51,133.23,276.91,120.37Z"/><path class="cls-1" d="M94.1,190c-1-.77-3.94,3.65-8,3.44-3.71-.19-7.36-4.28-8-8.5-1-6.45,5.18-13,10.63-12.76a9.42,9.42,0,0,1,6.2,3.19c2.27,2.56,1.73,5,3.09,5.33,2.21.56,3.78-5.78,9.17-7.18a8.85,8.85,0,0,1,5.45.4,9.09,9.09,0,0,1,5.42,6.5c.74,4-2.17,7.15-1.46,7.68,1,.72,4.79-6.07,10.41-6.35a10.51,10.51,0,0,1,9.83,6.79c1.73,5.6-4.12,11-2.39,12.76s7.42-3.83,12.36-1.59c3.83,1.73,4.57,7,4.65,7.57.69,5.39-2.95,10.27-7,12.5-4.47,2.43-11.13,2.64-13.6-.55-2.74-3.54.75-9.91-.8-10.63s-3.91,5.6-9.39,6.65c-3.43.65-7.73-.82-9.57-3.73-2.92-4.62,1.18-11.58-.18-12.23s-3.5,5.66-8.51,6.65c-4,.8-9.14-1.92-10.37-5.58C90.58,195.84,95.22,190.85,94.1,190Z"/><line class="cls-2" x1="183.07" y1="169.03" x2="201.44" y2="189.43"/><line class="cls-3" x1="183.07" y1="169.03" x2="201.44" y2="189.43"/><line class="cls-2" x1="183.07" y1="169.03" x2="201.44" y2="189.43"/><line class="cls-4" x1="170.01" y1="186.94" x2="184.91" y2="203.44"/><line class="cls-4" x1="159.09" y1="205.74" x2="167.43" y2="215.73"/><ellipse class="cls-1" cx="150" cy="150" rx="137.79" ry="85.96"/></svg>